<?xml version="1.0" encoding="iso-8859-1"?>
<!-- Uploaded to: SVG Repo, www.svgrepo.com, Generator: SVG Repo Mixer Tools -->
<svg fill="#03536d" height="50px" width="50px" version="1.1" id="Layer_1" xmlns="http://www.w3.org/2000/svg" xmlns:xlink="http://www.w3.org/1999/xlink" 
	 viewBox="0 0 490.6 490.6" xml:space="preserve">
<g>
	<g>
		<path d="M469.3,234.65H384c0-11.8-9.5-21.3-21.3-21.3h-64c-11.8,0-21.3,9.5-21.3,21.3h-12.5c-4.8,0-8.8-3.9-8.8-8.8v-12.5
			c11.8,0,21.3-9.5,21.3-21.3v-64c0-11.8-9.5-21.3-21.3-21.3v-85.4c0-11.8-9.5-21.3-21.3-21.3h-192c-12-0.1-21.5,9.5-21.5,21.3v85.3
			c-11.8,0-21.3,9.5-21.3,21.3v64c0,11.8,9.5,21.3,21.3,21.3v49.9c0,113.7,92.5,206.1,206.1,206.1h49.9c0,11.8,9.5,21.3,21.3,21.3
			h64c11.8,0,21.3-9.5,21.3-21.3h85.4c11.8,0,21.3-9.5,21.3-21.3v-192C490.6,244.15,481.1,234.65,469.3,234.65z M234.6,170.65h-192
			v-21.3h192V170.65z M341.3,447.95H320v-192h21.3V447.95z"/>
	</g>
</g>
</svg>